<?xml version="1.0" encoding="utf-8"?>
<!-- Generator: Adobe Illustrator 23.1.1, SVG Export Plug-In . SVG Version: 6.00 Build 0)  -->
<svg version="1.1" id="Layer_1" xmlns="http://www.w3.org/2000/svg" xmlns:xlink="http://www.w3.org/1999/xlink" x="0px" y="0px"
	 viewBox="0 0 968.9 720.4" style="enable-background:new 0 0 968.9 720.4;" xml:space="preserve">
<style type="text/css">
	.st0{fill-rule:evenodd;clip-rule:evenodd;fill:#FFFFFF;stroke:#372898;stroke-width:2;}
	.st1{fill-rule:evenodd;clip-rule:evenodd;fill:#FFFFFF;stroke:#372898;stroke-width:2;stroke-linecap:round;}
	.st2{fill-rule:evenodd;clip-rule:evenodd;fill:#FFFFFF;}
	.st3{fill-rule:evenodd;clip-rule:evenodd;fill:#CAD9FF;}
	.st4{fill-rule:evenodd;clip-rule:evenodd;fill:#372898;}
	.st5{filter:url(#Adobe_OpacityMaskFilter);}
	.st6{mask:url(#mask-2_1_);fill:none;stroke:#5554C3;stroke-width:2;}
	.st7{filter:url(#Adobe_OpacityMaskFilter_1_);}
	.st8{mask:url(#mask-2_2_);fill:none;stroke:#5554C3;stroke-width:2;}
	.st9{filter:url(#Adobe_OpacityMaskFilter_2_);}
	.st10{mask:url(#mask-2_3_);fill:none;stroke:#5554C3;stroke-width:2;}
	.st11{filter:url(#Adobe_OpacityMaskFilter_3_);}
	.st12{mask:url(#mask-4_1_);}
	
		.st13{fill-rule:evenodd;clip-rule:evenodd;fill:#FFFFFF;stroke:#372898;stroke-width:2;stroke-linecap:round;stroke-linejoin:round;}
	.st14{fill-rule:evenodd;clip-rule:evenodd;fill:#89B922;}
	.st15{fill-rule:evenodd;clip-rule:evenodd;fill:#5554C3;}
	.st16{filter:url(#Adobe_OpacityMaskFilter_4_);}
	.st17{mask:url(#mask-8_1_);fill-rule:evenodd;clip-rule:evenodd;fill:#FFFFFF;}
	.st18{fill-rule:evenodd;clip-rule:evenodd;}
	.st19{filter:url(#Adobe_OpacityMaskFilter_5_);}
	.st20{mask:url(#mask-10_1_);fill-rule:evenodd;clip-rule:evenodd;}
	.st21{filter:url(#Adobe_OpacityMaskFilter_6_);}
	.st22{mask:url(#mask-10_2_);fill-rule:evenodd;clip-rule:evenodd;fill:#FFFFFF;}
	.st23{filter:url(#Adobe_OpacityMaskFilter_7_);}
	.st24{mask:url(#mask-12_1_);fill-rule:evenodd;clip-rule:evenodd;fill:#FFFFFF;}
	.st25{fill:none;stroke:#372898;stroke-width:2;}
	.st26{filter:url(#Adobe_OpacityMaskFilter_8_);}
	.st27{mask:url(#mask-14_1_);fill-rule:evenodd;clip-rule:evenodd;fill:#372898;}
</style>
<title>21</title>
<desc>Created with Sketch.</desc>
<g>
	<g transform="translate(418.194197, 217.677257)">
		<path id="Combined-Shape-Copy-5" class="st0" d="M-77-26L-77-26c-0.4-0.8-0.3-1.8,0.3-2.5c5.8-4.7,8.1-5.7,10.1-6.8
			c0.4-0.2,0.8-0.4,1.2-0.6l0,0c3.8-2.1,8-3.2,12.4-3.1l16.7,0.5l4.1-4.8l0,14.7l-11.9,1.1c-3,0.3-6,0.2-9-0.3l-3.5-0.6
			c-2.2-0.5-4.1-0.5-5.7-0.2c-1.6,0.3-5.7,1.5-12.6,3.4l0,0C-75.8-24.9-76.7-25.3-77-26z"/>
		<rect id="Rectangle" x="-159.4" y="-29.3" class="st1" width="454.4" height="393.1"/>
		<path id="Path-145" class="st2" d="M1.8-172.2c-2.9,1.7-4.6,7.5-5,17.6h13.8l1.9-9C8.3-171.1,4.7-173.9,1.8-172.2z"/>
		<rect x="94.5" y="-19.3" class="st3" width="200.6" height="383.1"/>
		<g transform="translate(1015.805803, 476.056795)">
			<g id="Mask" transform="translate(91.000000, 91.000000) scale(-1, 1) translate(-91.000000, -91.000000) ">
				<path class="st4" d="M-822.9-446.4L-822.9-446.4c-23.9,0-43.3,19.4-43.3,43.3l0,0c0,23.9,19.4,43.3,43.3,43.3l0,0
					c23.9,0,43.3-19.4,43.3-43.3l0,0C-779.7-427-799-446.4-822.9-446.4z"/>
			</g>
			<defs>
				<filter id="Adobe_OpacityMaskFilter" filterUnits="userSpaceOnUse" x="-868.4" y="-360" width="70.5" height="45.4">
					<feColorMatrix  type="matrix" values="1 0 0 0 0  0 1 0 0 0  0 0 1 0 0  0 0 0 1 0"/>
				</filter>
			</defs>
			<mask maskUnits="userSpaceOnUse" x="-868.4" y="-360" width="70.5" height="45.4" id="mask-2_1_">
				<g class="st5">
					<path id="path-1_1_" class="st2" d="M-822.9-446.4L-822.9-446.4c23.9,0,43.3,19.4,43.3,43.3l0,0c0,23.9-19.4,43.3-43.3,43.3
						l0,0c-23.9,0-43.3-19.4-43.3-43.3l0,0C-866.2-427-846.8-446.4-822.9-446.4z"/>
				</g>
			</mask>
			<path id="Path-23" class="st6" d="M-819.3-315.3c-17.3-17.3-30.5-25.1-39.4-23.4c-13.4,2.6-10.5,17.4,2.9,14.8s56.8-6.9,56.9-20
				c0-8.7-7.4-13.8-22.3-15.2"/>
			<defs>
				<filter id="Adobe_OpacityMaskFilter_1_" filterUnits="userSpaceOnUse" x="-871.7" y="-448.3" width="70.5" height="46.6">
					<feColorMatrix  type="matrix" values="1 0 0 0 0  0 1 0 0 0  0 0 1 0 0  0 0 0 1 0"/>
				</filter>
			</defs>
			<mask maskUnits="userSpaceOnUse" x="-871.7" y="-448.3" width="70.5" height="46.6" id="mask-2_2_">
				<g class="st7">
					<path id="path-1_2_" class="st2" d="M-822.9-446.4L-822.9-446.4c23.9,0,43.3,19.4,43.3,43.3l0,0c0,23.9-19.4,43.3-43.3,43.3
						l0,0c-23.9,0-43.3-19.4-43.3-43.3l0,0C-866.2-427-846.8-446.4-822.9-446.4z"/>
				</g>
			</mask>
			<path id="Path-23-Copy-2" class="st8" d="M-822.6-402.4c-17.3-17.3-30.5-25.1-39.4-23.3c-13.4,2.6-10.5,17.4,2.9,14.8
				s56.8-6.9,56.9-20c0-8.7-7.7-13.7-23.1-14.8l-2.5-1.8"/>
			<defs>
				<filter id="Adobe_OpacityMaskFilter_2_" filterUnits="userSpaceOnUse" x="-843.8" y="-403.5" width="70.5" height="45.6">
					<feColorMatrix  type="matrix" values="1 0 0 0 0  0 1 0 0 0  0 0 1 0 0  0 0 0 1 0"/>
				</filter>
			</defs>
			<mask maskUnits="userSpaceOnUse" x="-843.8" y="-403.5" width="70.5" height="45.6" id="mask-2_3_">
				<g class="st9">
					<path id="path-1_3_" class="st2" d="M-822.9-446.4L-822.9-446.4c23.9,0,43.3,19.4,43.3,43.3l0,0c0,23.9-19.4,43.3-43.3,43.3
						l0,0c-23.9,0-43.3-19.4-43.3-43.3l0,0C-866.2-427-846.8-446.4-822.9-446.4z"/>
				</g>
			</mask>
			<path id="Path-23-Copy" class="st10" d="M-823-402.8c17.8,17.6,31.2,25.6,40.1,23.8c13.4-2.6,10.5-17.5-2.9-14.9
				c-13.4,2.6-56.9,6.8-56.9,20c0,8.8,7.7,13.8,23.2,15"/>
		</g>
		<g transform="translate(1015.805803, 476.056795)">
			<g id="Group">
				<g transform="translate(91.000000, 91.000000) scale(-1, 1) translate(-91.000000, -91.000000) ">
					<path class="st4" d="M-822.9-446.4L-822.9-446.4c-23.9,0-43.3,19.4-43.3,43.3l0,0c0,23.9,19.4,43.3,43.3,43.3l0,0
						c23.9,0,43.3-19.4,43.3-43.3l0,0C-779.7-427-799-446.4-822.9-446.4z"/>
				</g>
				<defs>
					<filter id="Adobe_OpacityMaskFilter_3_" filterUnits="userSpaceOnUse" x="-867.2" y="-430.8" width="118.8" height="137.6">
						<feColorMatrix  type="matrix" values="1 0 0 0 0  0 1 0 0 0  0 0 1 0 0  0 0 0 1 0"/>
					</filter>
				</defs>
				<mask maskUnits="userSpaceOnUse" x="-867.2" y="-430.8" width="118.8" height="137.6" id="mask-4_1_">
					<g class="st11">
						<path id="path-3_1_" class="st2" d="M-822.9-446.4L-822.9-446.4c23.9,0,43.3,19.4,43.3,43.3l0,0c0,23.9-19.4,43.3-43.3,43.3
							l0,0c-23.9,0-43.3-19.4-43.3-43.3l0,0C-866.2-427-846.8-446.4-822.9-446.4z"/>
					</g>
				</mask>
				<g class="st12">
					<g transform="translate(-5.000000, 35.000000)">
						<path id="Path" class="st0" d="M-861.2-399.6l18,57.2l-0.4,10.9l63,0.6l-0.6-11l1.4-79.2c0.1-5-3.9-9.1-8.9-9.2
							c-0.1,0-0.1,0-0.2,0l-20.9,0.1l-35.4,1.7c-4.2,0.2-7.8,3-9,7L-861.2-399.6z"/>
						<polygon id="Path-39" class="st4" points="-781,-341.9 -786.5,-391.8 -780.3,-388 						"/>
						<path class="st13" d="M-789.9-400.4l19,58.6l-30.7,12.4l11.6,0.2c34.8,1.1,49.6-6.1,44.4-21.6c-5.2-15.7-11.4-37.9-18.6-66.6
							c-2.8-7.7-10.1-12.8-18.3-12.8h-19.2"/>
						<path class="st13" d="M-830.2-428.6c0,4.5,6.7,8.1,11.2,8.1s11.2-4.5,11.2-9"/>
						<path id="Combined-Shape" class="st1" d="M-810.2-431.5c0.2,5-5.7,8.1-9.2,8.1c-3.5,0-8.4-2.4-8.4-7.1l0.1-8.3l15-3.6
							L-810.2-431.5z"/>
						<polygon id="Path-11-Copy-6" class="st4" points="-827.9,-435 -826.6,-432.4 -812.7,-442.4 -827.9,-438.8 						"/>
						<path id="Combined-Shape-Copy" class="st1" d="M-810.9-445c-3.1,4.3-8.4,7.3-13.5,7.3c-7.7,0-7.8-5.7-7.8-13.3
							s2.2-12.2,9.9-13.6c7.2-1.3,13.1,3.7,13.9,10.5c1.6,0.7,2.8,2.4,2.8,4.4c0,2.6-2,4.7-4.5,4.7
							C-810.3-444.9-810.6-444.9-810.9-445z"/>
						<path id="Combined-Shape-Copy-2" class="st1" d="M-811-453.9c-0.6,0.1-1.2,0.3-1.7,0.6l-1.8-5.1l-16.3-0.4
							c0.8-1.1,1.5-2,2-2.4c4.5-4.2,7.6-3.5,9-3.3c2.3,0.3,4.1,0.8,5.7,1.5c1.6,0.8,2.7,1.7,3.3,2.6c0.9,1.4,1.5,2.2,2.3,4.6
							c0.5,1.6,0.5,2.3,0,2.2c-0.6-0.2-1.1-0.3-1.3-0.3s-0.7,0-1.1,0C-810.9-454-811-453.9-811-453.9z"/>
						<path id="Path-60" class="st1" d="M-810.1-430.8c12.1-4.8,19.2-6.6,21.4-5.5c2.1,1.1,3.1,2.9,3.1,5.5"/>
					</g>
				</g>
			</g>
		</g>
		<rect x="-159.4" y="-29.3" class="st14" width="454.4" height="15.7"/>
		<path class="st2" d="M-140.6-19.4c-1.2,0-2.1-1-2.1-2.2s1-2.1,2.2-2.1c1.2,0,2.1,1,2.1,2.2C-138.5-20.3-139.4-19.4-140.6-19.4z
			 M-133.5-19.3c-1.2,0-2.1-1-2.1-2.2s1-2.1,2.2-2.1c1.2,0,2.1,1,2.1,2.2C-131.3-20.2-132.3-19.3-133.5-19.3z M-126.4-19.2
			c-1.2,0-2.1-1-2.1-2.2c0-1.2,1-2.1,2.2-2.1c1.2,0,2.1,1,2.1,2.2C-124.2-20.1-125.2-19.1-126.4-19.2z"/>
		<path id="Path-6-Copy-6" class="st1" d="M5.5-135.1L-15-87.6l-11.7,44.2c-0.9,3.6-4.2,6.1-7.9,6l-9.7-0.1c-6-0.1-10.8-5-10.7-11
			c0-1.4,0.3-2.8,0.8-4l7.9-18.8c0.1-0.3,0.2-0.5,0.3-0.8l28.1-80.4l11-0.4c7.1-0.2,13,5.3,13.3,12.4C6.6-138.7,6.2-136.8,5.5-135.1
			z"/>
		<path id="Shape-Copy-18" class="st1" d="M10-154.6l3.3-12.4 M0.7-178.7L-7.1-156"/>
		
			<ellipse id="Oval" transform="matrix(0.1392 -0.9903 0.9903 0.1392 111.3625 36.2339)" class="st2" cx="76.5" cy="-45.9" rx="1.7" ry="1.7"/>
		
			<ellipse id="Oval-Copy" transform="matrix(0.1392 -0.9903 0.9903 0.1392 115.4649 42.551)" class="st2" cx="82.2" cy="-45.1" rx="1.7" ry="1.7"/>
		
			<ellipse id="Oval-Copy-4" transform="matrix(0.1392 -0.9903 0.9903 0.1392 119.5672 48.8681)" class="st2" cx="87.9" cy="-44.3" rx="1.7" ry="1.7"/>
		<g id="Group-5" transform="translate(435.805803, 597.322743)">
			<path id="Path-130-Copy-3" class="st1" d="M-561.9-441.2h159.5"/>
			<path id="Path-130-Copy-6" class="st1" d="M-561.9-298.7h159.5"/>
			<path id="Path-130-Copy-5" class="st1" d="M-561.9-416h159.5"/>
			<path id="Path-130-Copy-7" class="st1" d="M-561.9-273.5h159.5"/>
			<path id="Path-130-Copy-4" class="st1" d="M-561.9-428.4h189.1"/>
			<path id="Path-130-Copy-8" class="st1" d="M-561.9-285.9h189.1"/>
			<path id="Path-130-Copy-2" class="st1" d="M-561.9-466.2h58"/>
			<path id="Path-130-Copy-9" class="st1" d="M-561.9-323.7h58"/>
			<g id="Group-3" transform="translate(0.000000, 0.265947)">
				<polyline id="Path-132" class="st1" points="-556.2,-495.9 -556.2,-489.5 -543.5,-482.1 -531,-489.5 -531,-495.9 				"/>
				<polygon id="Path-131" class="st1" points="-561.9,-499.2 -543.9,-510.2 -525.8,-499.2 -543.8,-488.3 				"/>
				<path id="Path-133" class="st1" d="M-543.6-481.7v-7"/>
				<path id="Path-134" class="st1" d="M-526-499.2v5.7"/>
				<path class="st1" d="M-525.8-493.5L-525.8-493.5c1.1,0,1.9,0.9,1.9,1.9v7.1h-3.8v-7.1C-527.7-492.7-526.8-493.5-525.8-493.5z"/>
			</g>
			<g id="Group-4" transform="translate(0.000000, 302.000000)">
				<polyline id="Path-135" class="st1" points="-560,-654.7 -560,-640.9 -530,-640.9 -530,-654.7 				"/>
				<polygon id="Path-136" class="st1" points="-561.9,-663.7 -561.9,-655.4 -545.3,-650.9 -528.6,-655.4 -528.6,-663.7 				"/>
				<rect x="-548.1" y="-653.7" class="st1" width="5.7" height="4.8"/>
				<rect x="-550.5" y="-668.5" class="st1" width="10.9" height="4.8"/>
			</g>
		</g>
		<polygon id="Path-16" class="st4" points="9.8,-164.6 9.2,-154.1 9.8,-155 12.4,-163.7 		"/>
		<path id="Combined-Shape-Copy-4" class="st0" d="M127.8-44.7l29.3,8.7l-20.9-19L114-122.4c-3.2-9.7-13.7-15-23.4-11.8
			c-2.5,0.8-4.8,2.1-6.7,3.9L30.4-81.6c-17.6-1.5-30.6,0.7-39,6.9C-17-68.5-17.2-64-9.2-61.1L6.3-43.2c6.4,7.3,17.5,8.1,24.8,1.8
			c1.1-0.9,2.1-2,2.9-3.2L84.6-117L127.8-44.7z"/>
		<path id="Path-3-Copy-19" class="st4" d="M169.7-29.5L169.7-29.5l-32.6,0.6c-1,0-2-0.4-2.8-1.1l-8.2-8.2l1.2,9.2h-10.2l1.5-23.4
			c0.1-1.5,1.3-2.6,2.8-2.6l0,0c10.7,6.2,18.9,10.5,24.6,13c5.7,2.5,7.2,2.5,4.3,0l17,5.7c2.4,0.8,3.6,3.4,2.8,5.7
			C170.1-30.1,169.9-29.8,169.7-29.5z"/>
		<rect x="-126.1" y="16.5" class="st1" width="200.6" height="34.7"/>
		<g id="Path-129" transform="translate(669.391575, 72.969272)">
			<g transform="translate(192.760608, 191.456811) rotate(-42.000000) translate(-192.760608, -191.456811) ">
				<path class="st0" d="M-567.2-134.6l49,1.2l-40.2-77.8c-4.7-9.1-15.9-12.7-25-8c-1.7,0.9-3.2,2-4.6,3.4l-62.4,62.4
					c-10.9,0.1-18.9,2-24.3,5.9c-8.4,6.1-10.5,9.8-6.3,11.1l29.6,23.4c7.6,6,18.7,4.7,24.7-2.9c0.1-0.1,0.2-0.2,0.2-0.3l46.9-62
					L-567.2-134.6z"/>
			</g>
		</g>
		<path class="st0" d="M55.4,92.4c-1,14.2,2.9,22.4,11.7,24.7c0.2,0,2.7-1.5,7.6-4.5V86.5l59.6-121.4c4.5-9.2,0.7-20.3-8.5-24.8
			c-2.5-1.2-5.3-1.9-8.2-1.9H30.2C17.3-72.7,5.7-78.9-4.7-79.9c-10.4-1.1-14.4,0.3-12.1,4l6.1,26.6c1.8,8,8.9,13.6,17.1,13.6h87.7
			L55.4,92.4z"/>
		<path class="st1" d="M88,84.3l50.3-124.2c3.8-9.5-0.7-20.3-10.2-24.1c-2.2-0.9-4.6-1.4-7-1.4H29.7C17.2-73.9,5.8-78.7-4.6-79.8
			c-10.4-1.1-14.4,0.3-12.1,4l1.1,30c0.4,9.4,8.1,16.9,17.6,16.9h88.1L55.2,37.7L88,84.3z"/>
		<path id="Path-5-Copy-2" class="st15" d="M-11-156.7l5.7,1.1c1.5,0.3,3,0.4,4.5,0.4l19.8,0L-3-91.6l4.6,12.2l-19.2,3.3
			c-3-2.7-4.6-9-4.8-18.8c-0.2-9,0.8-27.4,2.7-55.3h0c0.3-4,3.7-6.9,7.7-6.7C-11.6-156.8-11.3-156.8-11-156.7z"/>
		<path id="Combined-Shape-Copy-3" class="st0" d="M88.8-64.3L88.8-64.3c0.3-0.8,0.1-1.8-0.5-2.4c-6.1-4.2-8.6-5-10.7-5.9
			c-0.4-0.2-0.8-0.3-1.2-0.5l0,0c-3.9-1.8-8.3-2.5-12.6-2l-16.6,1.9l-9.4,1.4l5.1,7l11.2,1.2c4.2,0.4,8.5,0.1,12.6-0.9l1.6-0.4
			c2.1-0.7,4-0.9,5.7-0.6c1.6,0.2,5.8,1,12.8,2.3v0C87.7-63.1,88.5-63.5,88.8-64.3z"/>
		<path id="Path-6-Copy-5" class="st1" d="M26.9-142.7L24.5-87l29.2,8.9c3.4,1,5.7,4.2,5.7,7.7l0,2c0,4.6-3.4,8.4-7.9,9l-41.3,5.3
			C3-53.2-3.7-58.3-4.6-65.6c-0.1-0.8-0.1-1.5-0.1-2.3l3.4-73c0.4-8,6.7-14.5,14.7-15l0,0c7-0.4,13,4.8,13.4,11.8
			C26.9-143.6,26.9-143.2,26.9-142.7z"/>
		<path id="Path-3-Copy-18" class="st4" d="M80.4,132L80.4,132l-25-20.9c-0.8-0.7-1.3-1.6-1.4-2.6l-0.8-11.6l-5.2,7.7L40.4,98
			l16.5-16.7c1-1,2.7-1.1,3.8-0.1l0,0c4,11.6,7.4,20.3,10,26c2.7,5.7,3.7,6.6,3.2,2.8l9.1,15.5c1.3,2.2,0.5,4.9-1.6,6.2
			C81.1,131.8,80.8,131.9,80.4,132z"/>
		
			<g id="Group-11" transform="translate(728.473845, 40.500000) scale(-1, 1) rotate(-13.000000) translate(-728.473845, -40.500000) translate(694.973845, 7.000000)">
			
				<g id="Group-2" transform="translate(32.654117, 33.481293) rotate(-6.000000) translate(-32.654117, -33.481293) translate(3.654117, 3.481293)">
				<path class="st1" d="M789.2,62.6L790,55c0.3-7.9-6.2-12.6-13.8-11.5c-8.2,1.2-10,5.6-11.8,13.8c-1.8,8.2-0.4,12.7,7.7,13
					c1.7,0.1,3.9-0.2,6.6-0.9"/>
				<path id="Shape" class="st1" d="M784.7,64.9c1.6-0.8,2.8-2.6,2.9-4.6c0.1-2.9-2-5.4-4.8-5.5c-1,0-1.9,0.2-2.7,0.7"/>
			</g>
			<path id="Path-9-Copy" class="st4" d="M787.3-20.1c-0.9-0.6-1.6-0.9-2.1-1c-1.2,0-2.6,0.9-3.1,1c-2.2,0.1-5.2-3.3-8.9-10.2
				c5.6-1.2,9.6-1.5,11.8-0.9s4.5,2.8,6.8,6.7l0.9,12.1c-1.7,1.3-2.8,2-3.1,2.1c-0.3,0.1-0.9,0-1.7-0.4c0.3-0.5,0.7-1,1.2-1.4
				c0.6-0.6,1.5-1.3,1.5-2.1C790.7-16.1,789.6-18,787.3-20.1z"/>
		</g>
		<path id="Path-121" class="st1" d="M24.5-87.6v7.1"/>
		<path id="Path-128" class="st4" d="M3.3-172.4c0.5,3.3,0.2,7-1,10.9c-1.7,5.9-5.5,8.3-10,11.4c-4.5,3.1-10.3,4.1-12.6,2.6
			s-3.6-5.7,0-10.9c3.6-5.2,7.7-0.3,12.6-6.2c2.5-3,6.1-10.3,10.9-21.9c-1.6,4.2-2.4,7.2-2.4,9S1.8-173.9,3.3-172.4z"/>
		<g transform="translate(1089.805803, 1040.056795)">
			<g id="Clip-2">
			</g>
			<defs>
				<filter id="Adobe_OpacityMaskFilter_4_" filterUnits="userSpaceOnUse" x="-905" y="-742.3" width="16.6" height="16.6">
					<feColorMatrix  type="matrix" values="1 0 0 0 0  0 1 0 0 0  0 0 1 0 0  0 0 0 1 0"/>
				</filter>
			</defs>
			<mask maskUnits="userSpaceOnUse" x="-905" y="-742.3" width="16.6" height="16.6" id="mask-8_1_">
				<g class="st16">
					<polygon id="path-7_1_" class="st2" points="-905,-742.3 -888.4,-742.3 -888.4,-725.7 -905,-725.7 					"/>
				</g>
			</mask>
			<path id="Fill-1" class="st17" d="M-896.7-742.3c-4.6,0-8.3,3.7-8.3,8.3c0,4.6,3.7,8.3,8.3,8.3s8.3-3.7,8.3-8.3
				C-888.4-738.6-892.1-742.3-896.7-742.3z M-901.1-729.7h2v-6.1h-2V-729.7z M-900.1-736.6L-900.1-736.6c-0.7,0-1.1-0.5-1.1-1.1
				c0-0.6,0.5-1.1,1.1-1.1s1.1,0.5,1.1,1.1C-899-737.1-899.4-736.6-900.1-736.6z M-891.8-729.7h-2v-3.3c0-0.8-0.3-1.4-1-1.4
				c-0.6,0-0.9,0.4-1,0.7c-0.1,0.1-0.1,0.3-0.1,0.5v3.4h-2c0,0,0-5.5,0-6.1h2v0.9c0.3-0.4,0.8-1,1.8-1c1.3,0,2.3,0.9,2.3,2.7V-729.7
				z"/>
		</g>
		<polygon class="st4" points="382.8,93.3 382.8,97.3 388.7,91.1 388.5,90.6 383.5,92.1 		"/>
		<g transform="translate(1036.805803, 1040.056795)">
			<path class="st18" d="M-867.7-725.7c-0.2,0-0.3,0-0.5,0.1C-868-725.6-867.9-725.7-867.7-725.7z"/>
			<path id="Fill-2" class="st18" d="M-866.7-725.7c-0.2,0-0.3,0-0.5,0C-867.1-725.6-866.9-725.7-866.7-725.7z"/>
			<path id="Fill-3" class="st18" d="M-867.7-725.7c-0.2,0-0.3,0-0.5,0C-868-725.6-867.9-725.7-867.7-725.7z"/>
			<path id="Fill-4" class="st18" d="M-867.7-725.7c-0.2,0-0.3,0-0.5,0C-868-725.6-867.9-725.7-867.7-725.7z"/>
			<path id="Fill-5" class="st18" d="M-866.7-725.7c-0.2,0-0.3,0-0.5,0C-867.1-725.6-866.9-725.7-866.7-725.7z"/>
			<path id="Fill-6" class="st18" d="M-866.3-725.7c-0.2,0-0.3,0-0.5,0C-866.6-725.6-866.4-725.7-866.3-725.7z"/>
			<path id="Fill-7" class="st18" d="M-866.3-725.7c-0.2,0-0.3,0-0.5,0C-866.6-725.6-866.4-725.7-866.3-725.7z"/>
			<path id="Fill-8" class="st18" d="M-866.3-725.7c-0.2,0-0.3,0-0.5,0C-866.6-725.6-866.4-725.7-866.3-725.7z"/>
			<g id="Group-12">
				<g id="Clip-10">
				</g>
				<defs>
					<filter id="Adobe_OpacityMaskFilter_5_" filterUnits="userSpaceOnUse" x="-868.3" y="-725.7" width="0.1" height="0">
						<feColorMatrix  type="matrix" values="1 0 0 0 0  0 1 0 0 0  0 0 1 0 0  0 0 0 1 0"/>
					</filter>
				</defs>
				<mask maskUnits="userSpaceOnUse" x="-868.3" y="-725.7" width="0.1" height="0" id="mask-10_1_">
					<g class="st19">
						<polygon id="path-9_1_" class="st2" points="-877.2,-742.3 -860.6,-742.3 -860.6,-725.7 -877.2,-725.7 						"/>
					</g>
				</mask>
				<path id="Fill-9" class="st20" d="M-868.2-725.7c0,0-0.1,0-0.1,0C-868.3-725.7-868.2-725.7-868.2-725.7z"/>
				<defs>
					<filter id="Adobe_OpacityMaskFilter_6_" filterUnits="userSpaceOnUse" x="-877.2" y="-742.3" width="16.6" height="16.6">
						<feColorMatrix  type="matrix" values="1 0 0 0 0  0 1 0 0 0  0 0 1 0 0  0 0 0 1 0"/>
					</filter>
				</defs>
				<mask maskUnits="userSpaceOnUse" x="-877.2" y="-742.3" width="16.6" height="16.6" id="mask-10_2_">
					<g class="st21">
						<polygon id="path-9_2_" class="st2" points="-877.2,-742.3 -860.6,-742.3 -860.6,-725.7 -877.2,-725.7 						"/>
					</g>
				</mask>
				<path id="Fill-11" class="st22" d="M-860.6-734c0-4.6-3.7-8.3-8.3-8.3s-8.3,3.7-8.3,8.3c0,4.6,3.7,8.3,8.3,8.3c0,0,0.1,0,0.1,0
					v-6.5h-1.8v-2.1h1.8v-1.5c0-1.8,1.1-2.7,2.7-2.7c0.8,0,1.4,0.1,1.6,0.1v1.9h-1.1c-0.9,0-1,0.4-1,1v1.3h2.1l-0.3,2.1h-1.8v6.2
					C-863.1-727-860.6-730.2-860.6-734z"/>
			</g>
			<path id="Fill-13" class="st18" d="M-868.2-725.7c-0.2,0-0.3,0-0.5,0C-868.5-725.6-868.3-725.7-868.2-725.7z"/>
			<path id="Fill-14" class="st18" d="M-868.6-725.7c-0.2,0-0.3,0-0.5,0C-869-725.7-868.8-725.7-868.6-725.7z"/>
		</g>
		<g transform="translate(1142.805803, 1040.056795)">
			<defs>
				<filter id="Adobe_OpacityMaskFilter_7_" filterUnits="userSpaceOnUse" x="-932.8" y="-742.3" width="16.6" height="16.6">
					<feColorMatrix  type="matrix" values="1 0 0 0 0  0 1 0 0 0  0 0 1 0 0  0 0 0 1 0"/>
				</filter>
			</defs>
			<mask maskUnits="userSpaceOnUse" x="-932.8" y="-742.3" width="16.6" height="16.6" id="mask-12_1_">
				<g class="st23">
					<polygon id="path-11_1_" class="st2" points="-932.8,-742.3 -916.2,-742.3 -916.2,-725.7 -932.8,-725.7 					"/>
				</g>
			</mask>
			<path class="st24" d="M-924.5-742.3c-4.6,0-8.3,3.7-8.3,8.3c0,4.6,3.7,8.3,8.3,8.3s8.3-3.7,8.3-8.3
				C-916.2-738.6-919.9-742.3-924.5-742.3z M-923.4-729.3c-2,0-2.8-1.5-2.8-2.5v-3.1h-1v-1.2c1.4-0.5,1.8-1.8,1.8-2.5
				c0-0.1,0-0.1,0.1-0.1h1.4v2.4h1.9v1.4h-1.9v2.9c0,0.4,0.2,0.9,0.9,0.9c0.2,0,0.6-0.1,0.8-0.2l0.5,1.3
				C-922-729.6-922.7-729.3-923.4-729.3z"/>
		</g>
		<path id="Path-130" class="st1" d="M165.8,136.9h58"/>
		<path id="Path-130-Copy" class="st1" d="M170.5,149.5H219"/>
		<g id="Group-6" transform="translate(1029.805803, 838.056795)">
			<path class="st4" d="M-873.5-636.3h4.8v15.2h-4.8V-636.3z M-873.5-611.6h4.8v15.2h-4.8V-611.6z M-864.5-636.3h4.8v15.2h-4.8
				V-636.3z M-864.5-611.6h4.8v15.2h-4.8V-611.6z M-855.5-636.3h4.8v15.2h-4.8V-636.3z M-855.5-611.6h4.8v15.2h-4.8V-611.6z
				 M-846.4-636.3h4.8v15.2h-4.8V-636.3z M-846.4-611.6h4.8v15.2h-4.8V-611.6z M-837.4-636.3h4.8v15.2h-4.8V-636.3z M-828.4-636.3
				h4.8v15.2h-4.8V-636.3z"/>
			<path class="st1" d="M-837.4-611.6h4.8v15.2h-4.8V-611.6z M-828.4-611.6h4.8v15.2h-4.8V-611.6z M-819.3-636.3h4.8v15.2h-4.8
				V-636.3z M-819.3-611.6h4.8v15.2h-4.8V-611.6z M-810.3-636.3h4.8v15.2h-4.8V-636.3z M-810.3-611.6h4.8v15.2h-4.8V-611.6z
				 M-801.3-636.3h4.8v15.2h-4.8V-636.3z M-801.3-611.6h4.8v15.2h-4.8V-611.6z"/>
		</g>
		<path class="st1" d="M266.5,111.1l-9.3-7.7c-1-0.9-2.6-0.7-3.4,0.3c0,0,0,0,0,0l0,0c-0.9,1.1-0.8,2.7,0.1,3.7l8.1,8.5l-5.3,4.6
			c-2.4,2.1-2.6,5.7-0.6,8c0.3,0.4,0.7,0.7,1.1,1l19.7,13.3c0,0,0.1,0,0.1,0.1l4.5,2.2l6.9-12.3c0.2-0.4,0.1-0.9-0.2-1.2
			L266.5,111.1C266.5,111.1,266.5,111.1,266.5,111.1z"/>
		<g transform="translate(1037.805803, 1198.322743)">
			<path class="st1" d="M-709.7-804.4l-2.1,15.2l-19,1.9v-17.1H-709.7z M-821.8-804.2l-8.7,10.2l-15.2-10.5l11.3-14L-821.8-804.2z"
				/>
			<path class="st4" d="M-710.9-793.9l2.9,16v4.9h-15h-12.3h-23.3c-3.3-0.9-5-2-5.3-3.4c-0.4-2.1-1.4-5.9,16.1-9.2
				c3.7-0.7,4.8-2.5,8.5-4.9c1.1-0.7,3.7-1.8,7.9-3.4c1.4,1.9,4.5,3,9.3,3.4C-717.3-790.2-713.6-791.3-710.9-793.9z M-828.6-795.5
				l-9.9,12.9l-3.7,3.3l-10.1-11.2l-8.2-9.1L-876-817c-1.5-3-1.9-5.1-1-6.2c1.3-1.7,3.5-5,17.6,5.8c3,2.3,5.1,1.9,9.4,3.1
				c1.3,0.4,3.9,1.6,7.8,3.6c-0.4,2.3,0.8,5.4,3.7,9.2S-832.3-795.8-828.6-795.5z"/>
		</g>
		
			<g id="Group-Copy" transform="translate(1091.805803, 1244.822743) rotate(48.000000) translate(-1091.805803, -1244.822743) translate(1021.805803, 1176.322743)">
		</g>
		<polyline class="st25" points="337.9,425.3 369.3,259.9 423.9,259.9 453.4,425.3 		"/>
		<path class="st1" d="M376.9,225.5h-29.5c-9.5,0-17.2,7.7-17.2,17.2c0,9.5,7.7,17.2,17.2,17.2h75.4c1.5,0,2.9-0.2,4.3-0.5
			c14.9-2.8,26.2-15.8,26.2-31.6v-86.5c0-14.8-12-26.9-26.9-26.9h-0.7c-15.2,0-28.3,10.7-31.4,25.6l-16.9,81.3
			C377.2,222.7,377,224.1,376.9,225.5z"/>
		
			<g transform="translate(1355.787915, 1019.126840) rotate(5.000000) translate(-1355.787915, -1019.126840) translate(1027.787915, 662.126840)">
			<g id="Path-78" transform="translate(0.921980, 0.599227)">
				<g id="Path-36" transform="translate(0.000000, 0.000000)">
					<g transform="translate(327.660225, 356.646779) scale(-1, 1) rotate(-36.000000) translate(-327.660225, -356.646779) ">
						<path class="st15" d="M-728.9-374.5l-53.2-0.6c-15-0.2-27.2,11.8-27.4,26.8c0,1.3,0.1,2.6,0.2,3.9l8.9,66.1l-83.2,96.7
							l24.6,23.1l67.3-67.2l7.7,52.8l35.8-3.1l-9.4-85.8l68.9-62.8l20.7-18.1c5.9-5.1,8.2-13.2,6-20.7l-6.2-20.7l-42.2-9.4
							L-728.9-374.5z"/>
					</g>
					<defs>
						<filter id="Adobe_OpacityMaskFilter_8_" filterUnits="userSpaceOnUse" x="-798.9" y="-391.4" width="139.7" height="181.9">
							<feColorMatrix  type="matrix" values="1 0 0 0 0  0 1 0 0 0  0 0 1 0 0  0 0 0 1 0"/>
						</filter>
					</defs>
					<mask maskUnits="userSpaceOnUse" x="-798.9" y="-391.4" width="139.7" height="181.9" id="mask-14_1_">
						<g class="st26">
							<path id="path-13_1_" class="st2" d="M-760.9-384.9l43.4,30.8c12.2,8.7,15.1,25.6,6.4,37.8c-0.8,1.1-1.6,2.1-2.5,3l-46,48.3
								l10.5,127.1l-33.5,4.3l-15-93.9l-37.3,38.2l-27.1-23.5l58-63.9l-18.9-91.3l-6.1-26.8c-1.7-7.6,1.1-15.5,7.3-20.3l17.2-13.2
								l39.7,17.2L-760.9-384.9z"/>
						</g>
					</mask>
					<path class="st27" d="M-689.6-381.2c6.9-6.6,11.9-9.4,14.9-8.5c17.5,5.5,22.3,21.9,11.2,22.9
						C-677.5-365.6-686.2-370.4-689.6-381.2z M-792.8-224.3l35.8-38l1.6,20.1l-33.5,31.8L-792.8-224.3z M-805.3-291.7l-8.3-86
						l90.8-2.5l-2.5,17.9l-76,84.6L-805.3-291.7z"/>
				</g>
			</g>
		</g>
		
			<g id="Group-3-Copy" transform="translate(1398.228089, 738.461907) rotate(72.000000) translate(-1398.228089, -738.461907) translate(1288.228089, 588.461907)">
			<path class="st1" d="M-813.9,934.6l36.6,52.9l-45.3,31.8l10.3,26.8l68-41.3c6.3-3.8,8.3-12,4.5-18.3c-0.1-0.2-0.3-0.5-0.5-0.7
				l-49-70.2L-813.9,934.6z"/>
		</g>
		<g id="Path-79" transform="translate(1454.764766, 614.221795)">
			<path class="st0" d="M-1074-515.2l-9.1,0.4c-5,0.2-8.8,4.5-8.6,9.4c0,0.3,0,0.5,0.1,0.8l11.3,83.6h56.1l-0.9-7l1.4-79.2
				c0.1-5-3.9-9.1-8.9-9.2c-0.1,0-0.1,0-0.2,0l0,0l-17.6,0.1"/>
		</g>
		<polygon id="Path-137" class="st1" points="318.3,158.3 337.8,212.9 380.4,214.7 361.3,158.3 		"/>
		<path class="st0" d="M388.8,187.4l11.1-1.5l6.4,14.3l-14.8,5.2c-6.2,3.3-10.2,5.3-12.1,6.2l0,0l0,0c-5.2,2.4-11.4,0.5-14.2-4.5
			l-3.3-5.9c-1.3-2.3-0.5-5.2,1.8-6.4c0.6-0.3,1.3-0.5,1.9-0.6l4.1-0.3c1.4-0.1,2.5-1.4,2.4-2.8c0-0.2-0.1-0.4-0.1-0.6l0,0l-0.5-2.1
			L388.8,187.4z"/>
		<path class="st1" d="M415.7,112.9l21.2,57.6l-40.2,12.4l8.6,19.6l54.1-9.4c7.2-1.3,12.1-8.2,10.8-15.4c-0.1-0.7-0.3-1.5-0.6-2.2
			l-24.9-70.4c-1.7-4.9-6.4-8.1-11.6-7.9l-7.1,0.2c-6.3,0.2-11.2,5.4-11,11.7C415,110.5,415.3,111.7,415.7,112.9z"/>
		<polygon id="Path-138" class="st4" points="326.5,158.4 328.1,162.4 354.3,162.4 352.6,158.4 347.1,157.7 345.9,154.3 
			332.6,154.3 333.6,157.7 		"/>
		<g id="Group-8" transform="translate(1480.805803, 541.322743)">
			<path class="st1" d="M-1098-448.5v6.2c-0.5,1.3-0.2,2.5,0.7,3.6c0.9,1.1,3.5,3.2,7.6,6.4c4.3-2.9,7.2-5.1,8.6-6.7
				c1.4-1.5,1.8-3,1.2-4.3l-0.8-14.7l0.9-8.3c0.4-8.6-6.8-13.8-15-12.6c-8.9,1.3-11.3,7.7-13.3,16.7c-2,8.9-0.4,12.9,8.5,13.2
				c0.5,0,1,0,1.6-0.1c1.1-0.1,3-0.6,5.9-1.5"/>
			<path class="st1" d="M-1085.7-455.5c1.8-0.9,3-2.8,3.1-5c0.1-3.2-2.2-5.9-5.2-6c-1.1,0-2.1,0.3-2.9,0.8"/>
			<path class="st4" d="M-1083.2-459c0.2-0.5,0.2-0.9,0.3-1.4c0.1-2.7-2-5-4.8-5.1c-1.4,0-2.6,0.5-3.6,1.4l0.2-4.1
				c-4.3-1-7.1-1.8-8.6-2.4c-1.4-0.6-2.7-1.7-4-3.1c-3.8-0.4-5.5-0.9-5-1.6c3.6-5.2,16.7-4.5,18.3-4.3c2.6,0.4,4.3,1.3,5,2.7
				c0.2,0.4,1.4,1.5,3.7,3.2c2.3,1.8,2.8,6.8,1.6,15l-2.8-0.3L-1083.2-459z"/>
		</g>
		<g id="Group-7" transform="translate(1493.805803, 617.322743)">
			<path id="Path-139" class="st1" d="M-1111.3-520.5c-4,0.5-5.7,1.7-5.2,3.8c0.5,2.1,0.9,5.3,1.3,9.7l11.2-7.4
				c-2.8,0.3-4.7,0-5.5-0.7C-1110.4-515.8-1111-517.6-1111.3-520.5z"/>
			<polygon id="Path-140" class="st1" points="-1104.1,-514.3 -1102.7,-508.1 -1108.4,-511.2 			"/>
		</g>
		
			<g id="Group-7-Copy" transform="translate(1540.750800, 629.273217) scale(-1, 1) rotate(6.000000) translate(-1540.750800, -629.273217) translate(1523.750800, 614.273217)">
			<path class="st1" d="M1094.9-635.1c-3.9,0.5-5.6,1.7-5.1,3.8s1.5,5.4,3.1,10l11.2-7.4c-3.9-0.3-6.4-0.8-7.4-1.6
				S1094.9-632.6,1094.9-635.1z"/>
			<polygon class="st1" points="1103.9,-628.7 1105.4,-622.5 1099.7,-625.6 			"/>
		</g>
		<path id="Path-141" class="st1" d="M-109.9,33.8h65.8"/>
		<path id="Combined-Shape-Copy-7" class="st0" d="M-142.5,388c8.8,10.8,14.2,16,16.3,15.7c2.1-0.3,1.4-6.3-2.2-17.8l-26-165.5
			c-1.6-10.1-11.1-17-21.2-15.4c-0.3,0-0.6,0.1-0.9,0.2l-98.5,20.3l89.1,33.2L-142.5,388z"/>
		<path id="Combined-Shape-Copy-6" class="st0" d="M-198.4,179.9L-198.4,179.9c0.4,0.8,0.3,1.8-0.2,2.5c-5.6,4.9-7.9,6-9.9,7.1
			c-0.4,0.2-0.8,0.4-1.2,0.7l0,0c-3.7,2.3-7.9,3.5-12.3,3.5l-16.7,0.1l-9.5-0.3l4.3-7.6l11-2.5c4.1-0.9,8.4-1.2,12.6-0.6l1.6,0.2
			c2.2,0.4,4.1,0.4,5.7,0c1.5-0.4,5.7-1.7,12.4-3.8l0,0C-199.7,178.8-198.8,179.2-198.4,179.9z"/>
		
			<ellipse transform="matrix(0.1392 -0.9903 0.9903 0.1392 -411.2911 6.6179)" class="st2" cx="-201.8" cy="239.9" rx="1.7" ry="1.7"/>
		
			<ellipse transform="matrix(0.1392 -0.9903 0.9903 0.1392 -407.1888 12.935)" class="st2" cx="-196.2" cy="240.7" rx="1.7" ry="1.7"/>
		
			<ellipse transform="matrix(0.1392 -0.9903 0.9903 0.1392 -403.0865 19.252)" class="st2" cx="-190.5" cy="241.5" rx="1.7" ry="1.7"/>
		<path class="st0" d="M-207.8,390.3c2.9,13.6,5.4,20.7,7.4,21.4c2,0.7,4.1-5,6.2-16.9l50.1-153.5c3.2-9.7-2.1-20.2-11.9-23.4
			c-1.9-0.6-3.8-0.9-5.7-0.9h-86.4c-12.9-6.4-24.6-10.1-34.9-11.2s-14.4,0.3-12.1,4l1.1,34.8c0.3,9.5,8.1,17,17.6,17h88
			L-207.8,390.3z"/>
		<polygon id="Path-146" class="st2" points="-273.7,113.5 -276.8,126.3 -291.3,126.3 -283.9,106.6 		"/>
		<path class="st1" d="M-278.3,181.1l37.5-1.5c3.4-0.1,6.5,1.9,7.8,5.1l5.8,14.6l-38.9,1.2c-7.3,0.2-13.5-5.5-13.7-12.9
			c-0.1-2.1,0.4-4.3,1.3-6.2L-278.3,181.1z"/>
		
			<g id="Group-9" transform="translate(278.278670, 780.322743) rotate(9.000000) translate(-278.278670, -780.322743) translate(221.778670, 722.322743)">
			<g transform="translate(56.500000, 58.000000) scale(-1, 1) translate(-56.500000, -58.000000) ">
				<polygon id="Rectangle-Copy-4" class="st1" points="597.8,-493.1 643.2,-493.1 651.5,-438.4 607,-438.4 				"/>
			</g>
			<g transform="translate(57.500000, 51.097726) scale(-1, 1) translate(-57.500000, -51.097726) translate(6.000000, 4.097726)">
				<polygon class="st1" points="595.7,-495.3 637.9,-495.3 644.7,-450.6 603.3,-450.6 				"/>
			</g>
			<circle class="st1" cx="-516.6" cy="-442.7" r="1.9"/>
		</g>
		<path class="st1" d="M-220.8,192.3l11.3-4.1c1.3-0.5,2.6,0.2,3.1,1.5c0,0,0,0,0,0l0,0c0.5,1.3-0.1,2.8-1.4,3.4l-10.5,5.3l3.4,6.1
			c1.5,2.8,0.5,6.2-2.2,7.8c-0.4,0.2-0.9,0.4-1.4,0.5l-23,5.8c0,0-0.1,0-0.1,0l-4.9,0.5l-2.2-13.9c-0.1-0.4,0.2-0.9,0.6-1
			L-220.8,192.3C-220.9,192.3-220.8,192.3-220.8,192.3z"/>
		<path class="st15" d="M-195.7,217.4l-52.7-0.2c-12.9-6.4-24.6-10.1-34.9-11.2c-10.4-1.1-18,0.3-22.8,4.2l4.5,36.4
			c1.1,8.8,8.6,15.4,17.5,15.4h80.5L-195.7,217.4z"/>
		<path class="st1" d="M-293.4,125.3l14.9,0.5l18.3,2.2l-21.1,63.6l4.6,12.2l-29.4,6.5l-2.3-23.5c-0.2-2.2-0.3-4.5-0.2-6.7l1.9-42.5
			C-306.4,130.5-300.5,125-293.4,125.3z"/>
		<path class="st1" d="M-251.4,140.4l-2.3,57.8l10.5-1.3c3-0.4,5.9,0.9,7.6,3.4l9.8,13.9l-40.1,11.6c-7.1,2-14.4-2-16.5-9.1
			c-0.4-1.4-0.6-2.9-0.5-4.3l3.3-70.2c0.4-8,6.7-14.5,14.7-15l0,0c7-0.5,13,4.8,13.5,11.8C-251.4,139.6-251.4,140-251.4,140.4z"/>
		<path class="st1" d="M-276.7,126.2l3.3-12.4 M-286.7,104.9l-7.1,19.9"/>
		<polygon class="st1" points="-320.4,261.7 -179.7,261.7 -250.1,428.4 		"/>
		<path class="st4" d="M-195.9,430.7l-19.7-26c-0.6-0.8-0.9-1.8-0.7-2.8l1.6-11.5l-6.7,6.5l-6.1-8.1l19.6-12.9
			c1.2-0.8,2.9-0.5,3.7,0.6c1.5,12.2,3,21.4,4.4,27.5c1.4,6.1,2.3,7.2,2.6,3.4l5.5,16.6c0.9,2.7-0.6,5.6-3.3,6.5
			C-195.2,430.6-195.5,430.7-195.9,430.7z M-113,419.9l-29.4-14.2c-0.9-0.4-1.6-1.2-1.9-2.2l-3.8-11l-3,8.8l-9.1-4.5l11.6-20.4
			c0.7-1.3,2.3-1.8,3.6-1.1c6.9,10.2,12.4,17.7,16.4,22.5c4.1,4.8,5.3,5.4,3.8,1.9l12.4,12.3c2,2,2.1,5.3,0,7.3
			C-112.5,419.5-112.7,419.7-113,419.9z"/>
		
			<g transform="translate(120.737240, 623.835054) scale(-1, 1) rotate(9.000000) translate(-120.737240, -623.835054) translate(88.237240, 588.335054)">
			
				<g transform="translate(32.000000, 38.000000) rotate(-6.000000) translate(-32.000000, -38.000000) translate(3.000000, 8.000000)">
				<path class="st1" d="M410.3-510.1l0.7-7.1c0.3-7.9-6.2-12.6-13.8-11.5c-8.2,1.2-10,5.6-11.8,13.8c-1.8,8.2-0.4,12.7,7.7,13
					c1.7,0.1,3.9-0.2,6.6-0.9"/>
				<path class="st1" d="M405.6-507.3c1.6-0.8,2.8-2.6,2.9-4.6c0.1-2.9-2-5.4-4.8-5.5c-1,0-1.9,0.2-2.7,0.7"/>
			</g>
			<path class="st4" d="M349.9-545c-0.9-0.6-1.6-0.9-2.1-1c-0.8,0-1.8,0.5-3.1,1.5c-4.9-2.3-8.2-3.9-10.2-4.9c-1.9-1-3-1.5-3.1-1.4
				l0,0c2.8-5.4,9.3-7.8,14.9-5.6c1.3,0.5,2.3,0.9,3.2,1.2c2.2,0.8,3.7,3,4.6,6.6l0,0c0.2,0.9,0.3,1.8,0.3,2.7l0.1,7.3
				c-1.1-1.5-2.1-3.1-3.1-4.6C351.1-543.5,350.6-544.1,349.9-545z"/>
		</g>
		<polygon class="st4" points="-275.7,113.4 -276.2,123.9 -275.7,123 -273.6,114.1 		"/>
		<path class="st1" d="M-253.9,198.3v7.1"/>
		<path id="Path-122" class="st1" d="M-197.1,261.7h27.2"/>
		<polygon id="Path-142" class="st4" points="-195.6,216.8 -190.4,207.8 -236.5,216.8 		"/>
		<path id="Path-143" class="st4" d="M-284.3,89.5c-2.1,1.7-3.5,3-4,3.8c-12.8,18.5-17.8,28.3-17.8,29.2c0,0.6,1.1,2.1,3.3,4.4l0,0
			c2,2.1,5.3,2.1,7.4,0.1c0.2-0.2,0.5-0.5,0.6-0.8l1-1.4c6.5,1,10.1-0.6,10.7-4.8c0.1-0.9,0.1-4.4,0-10.5c-0.9-0.5-1.6-1.3-2.1-2.4
			C-285.7,106.2-285.4,100.2-284.3,89.5z"/>
	</g>
</g>
</svg>
